<svg width="14" height="15" viewBox="0 0 14 15" fill="none" xmlns="http://www.w3.org/2000/svg">
<path d="M11.375 5.9816C11.375 7.2365 10.9676 8.3957 10.2812 9.33621L13.743 12.8001C14.0847 13.1419 14.0847 13.6969 13.743 14.0386C13.4012 14.3803 12.8461 14.3803 12.5043 14.0386L9.0426 10.5747C8.10195 11.2637 6.94258 11.6683 5.6875 11.6683C2.5457 11.6683 0 9.12293 0 5.9816C0 2.84025 2.5457 0.294922 5.6875 0.294922C8.82929 0.294922 11.375 2.84025 11.375 5.9816ZM5.6875 9.91853C7.8613 9.91853 9.625 8.15508 9.625 5.9816C9.625 3.80808 7.8613 2.04467 5.6875 2.04467C3.51367 2.04467 1.75 3.80808 1.75 5.9816C1.75 8.15508 3.51367 9.91853 5.6875 9.91853Z" fill="#CAC9CD"/>
</svg>
